<svg width="1900" height="500" viewBox="0 0 1920 557" fill="none" xmlns="http://www.w3.org/2000/svg">
<path opacity="0.05" d="M-227.998 568.22C-116.138 438.97 59.3419 280.62 278.122 278.1C538.502 275.1 699.332 494.69 839.302 419.98C989.562 339.78 904.702 33.0697 1021.42 -9.90029C1176.27 -66.9103 1400.99 445.17 1641.89 403.04C1829.98 370.14 1887.96 23.8596 1953.18 36.6896C2000.53 45.9996 2023.15 238.94 1968 873.16" stroke="white" stroke-width="2" stroke-miterlimit="10"/>
<path opacity="0.05" d="M2000.27 -72.4702C1888.41 56.7798 1712.93 215.129 1494.15 217.649C1233.77 220.649 1072.94 1.05953 932.972 75.7695C782.712 155.97 867.572 462.679 750.852 505.649C596.002 562.659 371.282 50.5795 130.382 92.7095C-57.7082 125.609 -115.688 471.89 -180.908 459.06C-228.258 449.75 -250.878 256.81 -195.728 -377.41" stroke="white" stroke-width="2" stroke-miterlimit="10"/>
</svg>
