<svg width="33" height="33" viewBox="0 0 33 33" fill="none" xmlns="http://www.w3.org/2000/svg">
<path d="M8.47013 21.7898C8.06013 21.7898 7.66014 21.5598 7.46014 21.1698C7.18014 20.6098 7.41013 19.9398 7.97013 19.6598C9.27013 19.0098 10.3801 18.0298 11.1901 16.8198C11.4601 16.4198 11.4601 15.8998 11.1901 15.5098C10.3801 14.2898 9.27013 13.3098 7.97013 12.6598C7.41013 12.3798 7.19014 11.6998 7.46014 11.1498C7.74014 10.5898 8.42013 10.3698 8.97013 10.6398C10.6201 11.4698 12.0401 12.7198 13.0601 14.2598C13.8401 15.4198 13.8401 16.9198 13.0601 18.0798C12.0301 19.6098 10.6201 20.8498 8.97013 21.6798C8.81013 21.7598 8.64013 21.7998 8.47013 21.7998V21.7898Z" fill="#26CC6B"/>
<path d="M23.1398 21.7901C22.9698 21.7901 22.7998 21.7501 22.6398 21.6701C20.9798 20.8401 19.5698 19.5901 18.5498 18.0501C17.7698 16.8901 17.7698 15.3901 18.5498 14.2301C19.5798 12.7001 20.9898 11.4601 22.6398 10.6301C23.1998 10.3501 23.8798 10.5801 24.1498 11.1401C24.4298 11.7001 24.1998 12.3701 23.6398 12.6501C22.3398 13.3001 21.2298 14.2801 20.4198 15.4901C20.1498 15.8901 20.1498 16.4101 20.4198 16.8001C21.2298 18.0201 22.3398 19.0001 23.6398 19.6501C24.1998 19.9301 24.4198 20.6101 24.1498 21.1601C23.9498 21.5601 23.5498 21.7801 23.1398 21.7801V21.7901Z" fill="#26CC6B"/>
<path d="M20.1902 26.3802C19.7802 26.3802 19.3802 26.1502 19.1802 25.7602C18.5302 24.4602 17.5502 23.3502 16.3402 22.5402C15.9402 22.2702 15.4302 22.2702 15.0302 22.5402C13.8102 23.3502 12.8302 24.4602 12.1802 25.7602C11.9002 26.3202 11.2302 26.5402 10.6702 26.2602C10.1102 25.9802 9.8902 25.3002 10.1702 24.7502C11.0002 23.0902 12.2502 21.6802 13.7902 20.6602C14.9402 19.8802 16.4502 19.8802 17.6102 20.6602C19.1402 21.6802 20.3802 23.1002 21.2102 24.7402C21.4902 25.3002 21.2602 25.9702 20.7102 26.2502C20.5502 26.3302 20.3802 26.3702 20.2102 26.3702L20.1902 26.3802Z" fill="#26CC6B"/>
<path d="M15.6698 12.18C14.9998 12.18 14.3398 11.98 13.7498 11.59C12.2198 10.57 10.9798 9.15002 10.1498 7.50002C9.86983 6.94002 10.0998 6.27002 10.6498 5.99002C11.2098 5.71002 11.8898 5.94002 12.1598 6.49002C12.8098 7.79002 13.7898 8.90003 14.9998 9.71003C15.3998 9.98003 15.9198 9.98003 16.3098 9.71003C17.5298 8.90003 18.5098 7.79002 19.1598 6.49002C19.4398 5.93002 20.1098 5.71002 20.6698 5.99002C21.2298 6.27002 21.4498 6.95002 21.1698 7.50002C20.3398 9.15002 19.0898 10.57 17.5498 11.59C16.9698 11.98 16.3098 12.17 15.6398 12.17L15.6698 12.18Z" fill="#26CC6B"/>
<path d="M20.67 32.32H11.65C3.47999 32.32 0 28.83 0 20.67V11.65C0 3.48 3.47999 0 11.65 0H20.67C28.84 0 32.32 3.49 32.32 11.65V20.67C32.32 28.84 28.84 32.32 20.67 32.32ZM11.65 2.24001C4.70999 2.24001 2.25 4.70001 2.25 11.64V20.66C2.25 27.6 4.70999 30.06 11.65 30.06H20.67C27.61 30.06 30.07 27.6 30.07 20.66V11.64C30.07 4.70001 27.61 2.24001 20.67 2.24001H11.65Z" fill="#26CC6B"/>
</svg>
